<svg width="445" height="108" viewBox="0 0 445 108" fill="none" xmlns="http://www.w3.org/2000/svg">
<g filter="url(#filter0_d)">
<path d="M10.5781 75V76.5H12.0781V75H10.5781ZM1.57812 75H0.078125V76.5H1.57812V75ZM1.57812 6.75V5.25H0.078125V6.75H1.57812ZM10.5781 6.75H12.0781V5.25H10.5781V6.75ZM10.5781 73.5H1.57812V76.5H10.5781V73.5ZM3.07812 75V6.75H0.078125V75H3.07812ZM1.57812 8.25H10.5781V5.25H1.57812V8.25ZM9.07812 6.75V75H12.0781V6.75H9.07812ZM37.4844 12H38.9844V10.5H37.4844V12ZM37.4844 24.2812H35.9844V25.7812H37.4844V24.2812ZM46.9531 24.2812H48.4531V22.7812H46.9531V24.2812ZM46.9531 30.9844V32.4844H48.4531V30.9844H46.9531ZM37.4844 30.9844V29.4844H35.9844V30.9844H37.4844ZM38.75 67.0312L37.5891 67.9811L37.5962 67.9899L37.6036 67.9986L38.75 67.0312ZM47.1875 67.9688H48.6875V66.1133L46.8732 66.502L47.1875 67.9688ZM47.1875 75L47.5839 76.4467L48.6875 76.1443V75H47.1875ZM28.8125 30.9844H30.3125V29.4844H28.8125V30.9844ZM19.5781 30.9844H18.0781V32.4844H19.5781V30.9844ZM19.5781 24.2812V22.7812H18.0781V24.2812H19.5781ZM28.8125 24.2812V25.7812H30.3125V24.2812H28.8125ZM28.8125 12V10.5H27.3125V12H28.8125ZM35.9844 12V24.2812H38.9844V12H35.9844ZM37.4844 25.7812H46.9531V22.7812H37.4844V25.7812ZM45.4531 24.2812V30.9844H48.4531V24.2812H45.4531ZM46.9531 29.4844H37.4844V32.4844H46.9531V29.4844ZM35.9844 30.9844V62.4375H38.9844V30.9844H35.9844ZM35.9844 62.4375C35.9844 64.6417 36.4369 66.5729 37.5891 67.9811L39.9109 66.0814C39.3756 65.4271 38.9844 64.2958 38.9844 62.4375H35.9844ZM37.6036 67.9986C38.8593 69.4868 40.8338 70.0312 43.0625 70.0312V67.0312C41.2287 67.0312 40.3282 66.5757 39.8964 66.0639L37.6036 67.9986ZM43.0625 70.0312C44.2199 70.0312 45.7158 69.8182 47.5018 69.4355L46.8732 66.502C45.1592 66.8693 43.9051 67.0312 43.0625 67.0312V70.0312ZM45.6875 67.9688V75H48.6875V67.9688H45.6875ZM46.7911 73.5533C44.6267 74.1463 42.5413 74.4375 40.5312 74.4375V77.4375C42.8337 77.4375 45.1858 77.1037 47.5839 76.4467L46.7911 73.5533ZM40.5312 74.4375C36.9718 74.4375 34.525 73.3747 32.9142 71.4571L30.6171 73.3867C32.9438 76.1566 36.3407 77.4375 40.5312 77.4375V74.4375ZM32.9142 71.4571C31.2498 69.4756 30.3125 66.5396 30.3125 62.4375H27.3125C27.3125 66.9604 28.344 70.6806 30.6171 73.3867L32.9142 71.4571ZM30.3125 62.4375V30.9844H27.3125V62.4375H30.3125ZM28.8125 29.4844H19.5781V32.4844H28.8125V29.4844ZM21.0781 30.9844V24.2812H18.0781V30.9844H21.0781ZM19.5781 25.7812H28.8125V22.7812H19.5781V25.7812ZM30.3125 24.2812V12H27.3125V24.2812H30.3125ZM28.8125 13.5H37.4844V10.5H28.8125V13.5ZM75.1719 49.5469V51.0469H76.6719V49.5469H75.1719ZM52.2969 49.5469H50.7969V51.0469H52.2969V49.5469ZM52.2969 42.4688V40.9688H50.7969V42.4688H52.2969ZM75.1719 42.4688H76.6719V40.9688H75.1719V42.4688ZM75.1719 48.0469H52.2969V51.0469H75.1719V48.0469ZM53.7969 49.5469V42.4688H50.7969V49.5469H53.7969ZM52.2969 43.9688H75.1719V40.9688H52.2969V43.9688ZM73.6719 42.4688V49.5469H76.6719V42.4688H73.6719ZM94.0156 48.2812V46.7812H92.5156V48.2812H94.0156ZM94.0156 75V76.5H95.5156V75H94.0156ZM85.0156 75H83.5156V76.5H85.0156V75ZM85.0156 6.75V5.25H83.5156V6.75H85.0156ZM127.719 12.4688L126.713 13.5816L126.717 13.5853L127.719 12.4688ZM127.859 42.9375L128.84 44.0727L128.84 44.0722L127.859 42.9375ZM94.0156 40.9219H92.5156V42.4219H94.0156V40.9219ZM121.25 37.5469L122.24 38.6741L122.247 38.6672L121.25 37.5469ZM110.703 14.1562L110.735 12.6566L110.719 12.6562H110.703V14.1562ZM94.0156 14.1562V12.6562H92.5156V14.1562H94.0156ZM92.5156 48.2812V75H95.5156V48.2812H92.5156ZM94.0156 73.5H85.0156V76.5H94.0156V73.5ZM86.5156 75V6.75H83.5156V75H86.5156ZM85.0156 8.25H110.188V5.25H85.0156V8.25ZM110.188 8.25C117.404 8.25 122.847 10.0881 126.713 13.5816L128.724 11.3559C124.153 7.22442 117.909 5.25 110.188 5.25V8.25ZM126.717 13.5853C130.616 17.0829 132.594 21.7065 132.594 27.6094H135.594C135.594 20.9498 133.321 15.4796 128.72 11.3522L126.717 13.5853ZM132.594 27.6094C132.594 33.8969 130.637 38.5525 126.878 41.8028L128.84 44.0722C133.394 40.135 135.594 34.5719 135.594 27.6094H132.594ZM126.879 41.8023C123.121 45.0479 117.601 46.7812 110.094 46.7812V49.7812C118.024 49.7812 124.348 47.9521 128.84 44.0727L126.879 41.8023ZM110.094 46.7812H94.0156V49.7812H110.094V46.7812ZM94.0156 42.4219H110.188V39.4219H94.0156V42.4219ZM110.188 42.4219C115.216 42.4219 119.309 41.2471 122.24 38.674L120.26 36.4197C118.066 38.3467 114.784 39.4219 110.188 39.4219V42.4219ZM122.247 38.6672C125.206 36.0333 126.594 32.2982 126.594 27.7031H123.594C123.594 31.6706 122.419 34.4979 120.253 36.4265L122.247 38.6672ZM126.594 27.7031C126.594 23.2966 125.189 19.6299 122.284 16.8663L120.216 19.04C122.436 21.1513 123.594 23.9847 123.594 27.7031H126.594ZM122.284 16.8663C119.384 14.1082 115.475 12.756 110.735 12.6566L110.672 15.6559C114.869 15.744 117.991 16.923 120.216 19.04L122.284 16.8663ZM110.703 12.6562H94.0156V15.6562H110.703V12.6562ZM92.5156 14.1562V40.9219H95.5156V14.1562H92.5156ZM168.734 32.0625L168.488 33.5421L170.234 33.8332V32.0625H168.734ZM152.891 39L151.507 38.4199L151.391 38.6982V39H152.891ZM152.891 75V76.5H154.391V75H152.891ZM144.219 75H142.719V76.5H144.219V75ZM144.219 24.2812V22.7812H142.719V24.2812H144.219ZM152.656 24.2812L154.156 24.2453L154.121 22.7812H152.656V24.2812ZM152.797 30.1406L151.297 30.1766L151.417 35.1612L154.067 30.938L152.797 30.1406ZM168.734 24H170.234V23.0729L169.405 22.6584L168.734 24ZM168.981 30.5829C167.576 30.3487 166.071 30.2344 164.469 30.2344V33.2344C165.929 33.2344 167.268 33.3388 168.488 33.5421L168.981 30.5829ZM164.469 30.2344C161.413 30.2344 158.733 30.8862 156.511 32.2802C154.281 33.6796 152.624 35.758 151.507 38.4199L154.274 39.5801C155.189 37.3982 156.477 35.8438 158.106 34.8213C159.744 33.7935 161.837 33.2344 164.469 33.2344V30.2344ZM151.391 39V75H154.391V39H151.391ZM152.891 73.5H144.219V76.5H152.891V73.5ZM145.719 75V24.2812H142.719V75H145.719ZM144.219 25.7812H152.656V22.7812H144.219V25.7812ZM151.157 24.3172L151.297 30.1766L154.296 30.1046L154.156 24.2453L151.157 24.3172ZM154.067 30.938C156.645 26.8306 160.204 24.8438 164.891 24.8438V21.8438C159.14 21.8438 154.636 24.3881 151.526 29.3433L154.067 30.938ZM164.891 24.8438C166.491 24.8438 167.497 25.0582 168.064 25.3416L169.405 22.6584C168.222 22.0668 166.665 21.8438 164.891 21.8438V24.8438ZM167.234 24V32.0625H170.234V24H167.234ZM176.422 35.7656L175.078 35.099L175.074 35.1076L176.422 35.7656ZM184.578 26.5781L183.791 25.301L183.786 25.3042L184.578 26.5781ZM213.266 30.5156L212.145 31.5122L212.148 31.5162L213.266 30.5156ZM216.828 63.5156L215.478 62.862L215.476 62.8665L216.828 63.5156ZM208.719 72.6562L207.929 71.3811L207.924 71.3843L208.719 72.6562ZM179.891 68.7656L178.77 69.7622L178.773 69.7662L179.891 68.7656ZM186.125 63.75L184.932 64.6588L184.937 64.6656L186.125 63.75ZM207.125 63.7031L208.322 64.6066L208.326 64.6014L207.125 63.7031ZM207.031 35.6719L205.835 36.577L205.84 36.5831L205.844 36.589L207.031 35.6719ZM175.016 49.1719C175.016 44.4025 175.944 40.1631 177.77 36.4237L175.074 35.1076C173.024 39.3056 172.016 44.0038 172.016 49.1719H175.016ZM177.766 36.4322C179.621 32.6913 182.158 29.8487 185.37 27.8521L183.786 25.3042C180.061 27.6201 177.16 30.9024 175.078 35.099L177.766 36.4322ZM185.365 27.8552C188.608 25.8573 192.315 24.8438 196.531 24.8438V21.8438C191.81 21.8438 187.548 22.9864 183.791 25.301L185.365 27.8552ZM196.531 24.8438C203.047 24.8438 208.204 27.0788 212.145 31.5122L214.387 29.5191C209.828 24.39 203.828 21.8438 196.531 21.8438V24.8438ZM212.148 31.5162C216.128 35.9613 218.188 41.9343 218.188 49.5938H221.188C221.188 41.3782 218.965 34.6324 214.383 29.515L212.148 31.5162ZM218.188 49.5938V50.2031H221.188V49.5938H218.188ZM218.188 50.2031C218.188 54.9435 217.274 59.1531 215.478 62.862L218.178 64.1692C220.195 60.0032 221.188 55.3377 221.188 50.2031H218.188ZM215.476 62.8665C213.719 66.5264 211.206 69.351 207.929 71.3811L209.509 73.9314C213.294 71.5865 216.187 68.3173 218.18 64.1647L215.476 62.8665ZM207.924 71.3843C204.687 73.4073 200.937 74.4375 196.625 74.4375V77.4375C201.438 77.4375 205.751 76.2802 209.514 73.9282L207.924 71.3843ZM196.625 74.4375C190.142 74.4375 184.983 72.2038 181.008 67.765L178.773 69.7662C183.361 74.8899 189.358 77.4375 196.625 77.4375V74.4375ZM181.012 67.7691C177.059 63.3221 175.016 57.3774 175.016 49.7812H172.016C172.016 57.9351 174.222 64.6467 178.77 69.7622L181.012 67.7691ZM175.016 49.7812V49.1719H172.016V49.7812H175.016ZM180.734 50.2031C180.734 56.0534 182.084 60.9197 184.932 64.6587L187.318 62.8413C184.978 59.7678 183.734 55.6029 183.734 50.2031H180.734ZM184.937 64.6656C187.852 68.4478 191.794 70.3594 196.625 70.3594V67.3594C192.706 67.3594 189.648 65.8647 187.313 62.8344L184.937 64.6656ZM196.625 70.3594C201.489 70.3594 205.438 68.4299 208.322 64.6066L205.928 62.7996C203.625 65.8513 200.573 67.3594 196.625 67.3594V70.3594ZM208.326 64.6014C211.182 60.782 212.516 55.5781 212.516 49.1719H209.516C209.516 55.2032 208.255 59.6867 205.924 62.8049L208.326 64.6014ZM212.516 49.1719C212.516 43.3715 211.128 38.5207 208.218 34.7547L205.844 36.589C208.247 39.6981 209.516 43.8472 209.516 49.1719H212.516ZM208.227 34.7667C205.317 30.9208 201.373 28.9688 196.531 28.9688V31.9688C200.44 31.9688 203.496 33.4855 205.835 36.577L208.227 34.7667ZM196.531 28.9688C191.782 28.9688 187.891 30.8897 184.984 34.6625L187.36 36.4937C189.702 33.4541 192.718 31.9688 196.531 31.9688V28.9688ZM184.984 34.6625C182.08 38.4299 180.734 43.6792 180.734 50.2031H183.734C183.734 44.0396 185.013 39.5389 187.36 36.4937L184.984 34.6625ZM246.406 62.2969L244.983 62.7707L246.455 67.1935L247.839 62.742L246.406 62.2969ZM258.219 24.2812V22.7812H257.114L256.786 23.8362L258.219 24.2812ZM267.5 24.2812L268.917 24.7746L269.611 22.7812H267.5V24.2812ZM247.109 82.8281L248.514 83.3537L248.52 83.3376L248.526 83.3215L247.109 82.8281ZM232.062 95.4844L231.934 96.9789L231.998 96.9844H232.062V95.4844ZM230.422 95.3438L230.144 96.8178L230.218 96.8318L230.294 96.8383L230.422 95.3438ZM227.188 94.7344H225.688V95.9782L226.91 96.2084L227.188 94.7344ZM227.188 87.7031L227.307 86.2079L225.688 86.0783V87.7031H227.188ZM229.531 87.8906L229.412 89.3858L229.471 89.3906H229.531V87.8906ZM236.375 86.1094L235.501 84.8903L235.49 84.8983L236.375 86.1094ZM240.453 79.5938L239.048 79.0699L239.039 79.0924L239.032 79.1152L240.453 79.5938ZM242.375 74.4375L243.781 74.9614L243.973 74.4459L243.786 73.9285L242.375 74.4375ZM224.281 24.2812V22.7812H222.146L222.87 24.7903L224.281 24.2812ZM233.75 24.2812L235.173 23.8074L234.832 22.7812H233.75V24.2812ZM247.839 62.742L259.651 24.7263L256.786 23.8362L244.974 61.8518L247.839 62.742ZM258.219 25.7812H267.5V22.7812H258.219V25.7812ZM266.083 23.7879L245.693 82.3348L248.526 83.3215L268.917 24.7746L266.083 23.7879ZM245.704 82.3026C244.184 86.366 242.265 89.2799 240.015 91.1724C237.791 93.0426 235.166 93.9844 232.062 93.9844V96.9844C235.834 96.9844 239.154 95.8168 241.946 93.4682C244.712 91.1419 246.878 87.7278 248.514 83.3537L245.704 82.3026ZM232.191 93.9899L230.55 93.8492L230.294 96.8383L231.934 96.9789L232.191 93.9899ZM230.7 93.8697L227.465 93.2603L226.91 96.2084L230.144 96.8178L230.7 93.8697ZM228.688 94.7344V87.7031H225.688V94.7344H228.688ZM227.068 89.1983L229.412 89.3858L229.651 86.3954L227.307 86.2079L227.068 89.1983ZM229.531 89.3906C232.647 89.3906 235.284 88.7642 237.26 87.3205L235.49 84.8983C234.216 85.8295 232.291 86.3906 229.531 86.3906V89.3906ZM237.249 87.3284C239.277 85.8742 240.77 83.354 241.875 80.0723L239.032 79.1152C238.011 82.146 236.785 83.9695 235.501 84.8903L237.249 87.3284ZM241.859 80.1176L243.781 74.9614L240.969 73.9136L239.048 79.0699L241.859 80.1176ZM243.786 73.9285L225.692 23.7722L222.87 24.7903L240.964 74.9465L243.786 73.9285ZM224.281 25.7812H233.75V22.7812H224.281V25.7812ZM232.327 24.7551L244.983 62.7707L247.829 61.8231L235.173 23.8074L232.327 24.7551ZM286.297 75V76.5H287.797V75H286.297ZM277.297 75H275.797V76.5H277.297V75ZM277.297 6.75V5.25H275.797V6.75H277.297ZM286.297 6.75H287.797V5.25H286.297V6.75ZM286.297 73.5H277.297V76.5H286.297V73.5ZM278.797 75V6.75H275.797V75H278.797ZM277.297 8.25H286.297V5.25H277.297V8.25ZM284.797 6.75V75H287.797V6.75H284.797ZM309.641 24.2812L311.139 24.2151L311.076 22.7812H309.641V24.2812ZM309.922 30.6562L308.423 30.7224L308.6 34.7297L311.096 31.5896L309.922 30.6562ZM341.328 41.4844H342.828L342.828 41.4727L341.328 41.4844ZM341.328 75V76.5H342.828V75H341.328ZM332.656 75H331.156V76.5H332.656V75ZM332.656 41.4375H334.156L334.156 41.4247L332.656 41.4375ZM330.125 33.3281L329.026 34.3488L329.031 34.354L329.036 34.3592L330.125 33.3281ZM310.109 38.8594L308.761 38.2024L308.609 38.5134V38.8594H310.109ZM310.109 75V76.5H311.609V75H310.109ZM301.438 75H299.938V76.5H301.438V75ZM301.438 24.2812V22.7812H299.938V24.2812H301.438ZM308.142 24.3474L308.423 30.7224L311.42 30.5901L311.139 24.2151L308.142 24.3474ZM311.096 31.5896C314.685 27.0741 319.315 24.8438 325.109 24.8438V21.8438C318.404 21.8438 312.908 24.4884 308.748 29.7229L311.096 31.5896ZM325.109 24.8438C330.187 24.8438 333.75 26.2675 336.085 28.8787C338.45 31.5235 339.783 35.6398 339.828 41.496L342.828 41.4727C342.78 35.2352 341.363 30.2812 338.321 26.8791C335.25 23.4434 330.751 21.8438 325.109 21.8438V24.8438ZM339.828 41.4844V75H342.828V41.4844H339.828ZM341.328 73.5H332.656V76.5H341.328V73.5ZM334.156 75V41.4375H331.156V75H334.156ZM334.156 41.4247C334.123 37.5802 333.238 34.4353 331.214 32.297L329.036 34.3592C330.324 35.721 331.127 37.9823 331.156 41.4503L334.156 41.4247ZM331.224 32.3074C329.207 30.1354 326.179 29.2031 322.484 29.2031V32.2031C325.727 32.2031 327.793 33.0209 329.026 34.3488L331.224 32.3074ZM322.484 29.2031C319.389 29.2031 316.612 30.0343 314.213 31.7277L315.943 34.1786C317.794 32.8719 319.955 32.2031 322.484 32.2031V29.2031ZM314.213 31.7277C311.873 33.3797 310.054 35.5477 308.761 38.2024L311.458 39.5163C312.54 37.296 314.034 35.5265 315.943 34.1786L314.213 31.7277ZM308.609 38.8594V75H311.609V38.8594H308.609ZM310.109 73.5H301.438V76.5H310.109V73.5ZM302.938 75V24.2812H299.938V75H302.938ZM301.438 25.7812H309.641V22.7812H301.438V25.7812ZM358.672 75H357.172V76.5H358.672V75ZM358.672 30.9844H360.172V29.4844H358.672V30.9844ZM350.656 30.9844H349.156V32.4844H350.656V30.9844ZM350.656 24.2812V22.7812H349.156V24.2812H350.656ZM358.672 24.2812V25.7812H360.172V24.2812H358.672ZM381.312 2.8125L382.809 2.91228L382.891 1.6848L381.703 1.3643L381.312 2.8125ZM380.844 9.84375L380.562 11.317L382.228 11.636L382.34 9.94353L380.844 9.84375ZM369.641 11.9062L370.732 12.935L370.737 12.9298L370.742 12.9245L369.641 11.9062ZM367.344 24.2812H365.844V25.7812H367.344V24.2812ZM378.172 24.2812H379.672V22.7812H378.172V24.2812ZM378.172 30.9844V32.4844H379.672V30.9844H378.172ZM367.344 30.9844V29.4844H365.844V30.9844H367.344ZM367.344 75V76.5H368.844V75H367.344ZM360.172 75V30.9844H357.172V75H360.172ZM358.672 29.4844H350.656V32.4844H358.672V29.4844ZM352.156 30.9844V24.2812H349.156V30.9844H352.156ZM350.656 25.7812H358.672V22.7812H350.656V25.7812ZM360.172 24.2812V19.0781H357.172V24.2812H360.172ZM360.172 19.0781C360.172 13.9074 361.548 10.128 364.103 7.51807L361.959 5.41943C358.702 8.74701 357.172 13.3739 357.172 19.0781H360.172ZM364.103 7.51807C366.654 4.91232 370.332 3.51562 375.359 3.51562V0.515625C369.762 0.515625 365.221 2.08768 361.959 5.41943L364.103 7.51807ZM375.359 3.51562C377.225 3.51562 379.078 3.76315 380.922 4.2607L381.703 1.3643C379.61 0.799345 377.494 0.515625 375.359 0.515625V3.51562ZM379.816 2.71272L379.347 9.74397L382.34 9.94353L382.809 2.91228L379.816 2.71272ZM381.126 8.37052C379.555 8.06968 377.897 7.92188 376.156 7.92188V10.9219C377.728 10.9219 379.195 11.0553 380.562 11.317L381.126 8.37052ZM376.156 7.92188C373.036 7.92188 370.422 8.8519 368.539 10.888L370.742 12.9245C371.922 11.6481 373.651 10.9219 376.156 10.9219V7.92188ZM368.549 10.8775C366.671 12.8705 365.844 15.6366 365.844 18.9375H368.844C368.844 16.1134 369.548 14.192 370.732 12.935L368.549 10.8775ZM365.844 18.9375V24.2812H368.844V18.9375H365.844ZM367.344 25.7812H378.172V22.7812H367.344V25.7812ZM376.672 24.2812V30.9844H379.672V24.2812H376.672ZM378.172 29.4844H367.344V32.4844H378.172V29.4844ZM365.844 30.9844V75H368.844V30.9844H365.844ZM367.344 73.5H358.672V76.5H367.344V73.5ZM388.391 35.7656L387.047 35.099L387.043 35.1076L388.391 35.7656ZM396.547 26.5781L395.76 25.301L395.755 25.3042L396.547 26.5781ZM425.234 30.5156L424.113 31.5122L424.117 31.5162L425.234 30.5156ZM428.797 63.5156L427.447 62.862L427.445 62.8665L428.797 63.5156ZM420.688 72.6562L419.898 71.3811L419.892 71.3843L420.688 72.6562ZM391.859 68.7656L390.738 69.7622L390.742 69.7662L391.859 68.7656ZM398.094 63.75L396.9 64.6588L396.906 64.6656L398.094 63.75ZM419.094 63.7031L420.291 64.6066L420.295 64.6014L419.094 63.7031ZM419 35.6719L417.804 36.577L417.808 36.5831L417.813 36.589L419 35.6719ZM386.984 49.1719C386.984 44.4025 387.913 40.1631 389.739 36.4237L387.043 35.1076C384.993 39.3056 383.984 44.0038 383.984 49.1719H386.984ZM389.734 36.4322C391.59 32.6913 394.127 29.8487 397.339 27.8521L395.755 25.3042C392.029 27.6201 389.129 30.9024 387.047 35.099L389.734 36.4322ZM397.334 27.8552C400.577 25.8573 404.284 24.8438 408.5 24.8438V21.8438C403.778 21.8438 399.517 22.9864 395.76 25.301L397.334 27.8552ZM408.5 24.8438C415.016 24.8438 420.172 27.0788 424.113 31.5122L426.355 29.5191C421.796 24.39 415.796 21.8438 408.5 21.8438V24.8438ZM424.117 31.5162C428.097 35.9613 430.156 41.9343 430.156 49.5938H433.156C433.156 41.3782 430.934 34.6324 426.352 29.515L424.117 31.5162ZM430.156 49.5938V50.2031H433.156V49.5938H430.156ZM430.156 50.2031C430.156 54.9435 429.242 59.1531 427.447 62.862L430.147 64.1692C432.164 60.0032 433.156 55.3377 433.156 50.2031H430.156ZM427.445 62.8665C425.688 66.5264 423.175 69.351 419.898 71.3811L421.477 73.9314C425.263 71.5865 428.156 68.3173 430.149 64.1647L427.445 62.8665ZM419.892 71.3843C416.656 73.4073 412.906 74.4375 408.594 74.4375V77.4375C413.407 77.4375 417.719 76.2802 421.483 73.9282L419.892 71.3843ZM408.594 74.4375C402.111 74.4375 396.952 72.2038 392.977 67.765L390.742 69.7662C395.33 74.8899 401.326 77.4375 408.594 77.4375V74.4375ZM392.98 67.7691C389.028 63.3221 386.984 57.3774 386.984 49.7812H383.984C383.984 57.9351 386.191 64.6467 390.738 69.7622L392.98 67.7691ZM386.984 49.7812V49.1719H383.984V49.7812H386.984ZM392.703 50.2031C392.703 56.0534 394.053 60.9197 396.9 64.6587L399.287 62.8413C396.947 59.7678 395.703 55.6029 395.703 50.2031H392.703ZM396.906 64.6656C399.82 68.4478 403.763 70.3594 408.594 70.3594V67.3594C404.675 67.3594 401.617 65.8647 399.282 62.8344L396.906 64.6656ZM408.594 70.3594C413.458 70.3594 417.406 68.4299 420.291 64.6066L417.896 62.7996C415.594 65.8513 412.542 67.3594 408.594 67.3594V70.3594ZM420.295 64.6014C423.151 60.782 424.484 55.5781 424.484 49.1719H421.484C421.484 55.2032 420.224 59.6867 417.892 62.8049L420.295 64.6014ZM424.484 49.1719C424.484 43.3715 423.097 38.5207 420.187 34.7547L417.813 36.589C420.215 39.6981 421.484 43.8472 421.484 49.1719H424.484ZM420.196 34.7667C417.286 30.9208 413.342 28.9688 408.5 28.9688V31.9688C412.408 31.9688 415.464 33.4855 417.804 36.577L420.196 34.7667ZM408.5 28.9688C403.751 28.9688 399.86 30.8897 396.953 34.6625L399.329 36.4937C401.671 33.4541 404.686 31.9688 408.5 31.9688V28.9688ZM396.953 34.6625C394.049 38.4299 392.703 43.6792 392.703 50.2031H395.703C395.703 44.0396 396.982 39.5389 399.329 36.4937L396.953 34.6625Z" fill="#00FFF0"/>
</g>
<defs>
<filter id="filter0_d" x="0.078125" y="0.515625" width="444.078" height="107.469" filterUnits="userSpaceOnUse" color-interpolation-filters="sRGB">
<feFlood flood-opacity="0" result="BackgroundImageFix"/>
<feColorMatrix in="SourceAlpha" type="matrix" values="0 0 0 0 0 0 0 0 0 0 0 0 0 0 0 0 0 0 127 0"/>
<feOffset dx="7" dy="7"/>
<feGaussianBlur stdDeviation="2"/>
<feColorMatrix type="matrix" values="0 0 0 0 0 0 0 0 0 0 0 0 0 0 0 0 0 0 0.21 0"/>
<feBlend mode="normal" in2="BackgroundImageFix" result="effect1_dropShadow"/>
<feBlend mode="normal" in="SourceGraphic" in2="effect1_dropShadow" result="shape"/>
</filter>
</defs>
</svg>
